<svg width="128" height="37" viewBox="0 0 128 37" fill="none" xmlns="http://www.w3.org/2000/svg"><rect width="128" height="37" rx="18.5" fill="#fff"/><path d="M22.5 24h1.036v-8.904h3.444V14.2h-7.924v.896H22.5V24zM32.298 24.084c2.506 0 3.654-1.232 3.654-2.674 0-3.57-6.034-1.946-6.034-4.634 0-.98.798-1.778 2.59-1.778.868 0 1.848.266 2.688.812l.35-.826c-.784-.546-1.932-.868-3.038-.868-2.492 0-3.612 1.246-3.612 2.688 0 3.626 6.034 1.974 6.034 4.662 0 .966-.798 1.736-2.632 1.736-1.288 0-2.534-.504-3.234-1.19l-.406.798c.728.756 2.17 1.274 3.64 1.274zM42.544 24.084c2.506 0 4.018-1.456 4.018-4.27V14.2h-1.008v5.572c0 2.324-1.092 3.388-3.01 3.388-1.904 0-2.996-1.064-2.996-3.388V14.2h-1.036v5.614c0 2.814 1.526 4.27 4.032 4.27zM57.764 14.2v7.952L51.45 14.2h-.854V24h1.036v-7.952l6.3 7.952h.854v-9.8h-1.022zM69.918 24h1.092l-4.48-9.8h-1.022l-4.48 9.8h1.078l1.176-2.618h5.46L69.918 24zm-6.258-3.458l2.352-5.264 2.352 5.264H63.66zM80.498 22.404c-.756.546-1.624.756-2.562.756-2.408 0-4.186-1.736-4.186-4.06 0-2.338 1.778-4.06 4.2-4.06 1.148 0 2.128.336 2.954 1.148l.644-.658c-.868-.938-2.156-1.414-3.64-1.414-2.996 0-5.18 2.114-5.18 4.984s2.184 4.984 5.166 4.984c1.358 0 2.674-.42 3.598-1.246V19.1h-.994v3.304z" fill="#232222"/><rect x="94" y="4" width="29" height="29" rx="14.5" fill="#2E2A2A"/><path d="M112.255 20.755h-.79l-.28-.27a6.47 6.47 0 001.57-4.23 6.501 6.501 0 00-11.096-4.596 6.503 6.503 0 00-1.409 7.083 6.5 6.5 0 006.005 4.013c1.61 0 3.09-.59 4.23-1.57l.27.28v.79l5 4.99 1.49-1.49-4.99-5zm-6 0c-2.49 0-4.5-2.01-4.5-4.5s2.01-4.5 4.5-4.5 4.5 2.01 4.5 4.5-2.01 4.5-4.5 4.5z" fill="#fff"/></svg>