<svg width="190" height="77" viewBox="0 0 190 77" fill="none" xmlns="http://www.w3.org/2000/svg"><path d="M29.851 3.758v3.973a41.971 41.971 0 012.755-.116h5.597v11.832h-7.366a18.78 18.78 0 01-2.842-.232v4.205c.957-.116 1.972-.145 2.842-.145h19.111c.667 0 1.885.029 2.726.145v-4.205c-.754.116-1.682.232-2.726.232h-7.685V7.615h6.119c.841 0 1.856.058 2.726.116V3.758c-.841.087-1.856.174-2.726.174H32.606c-.812 0-2.001-.087-2.755-.174zM60.649 1.96l-2.726 2.9c2.117 1.479 5.742 4.64 7.25 6.264l2.958-3.016c-1.682-1.769-5.452-4.785-7.482-6.148zm-3.625 19.314l2.436 3.828c4.089-.696 7.83-2.32 10.759-4.089 4.669-2.813 8.526-6.815 10.73-10.73l-2.262-4.089c-1.827 3.915-5.597 8.352-10.556 11.281-2.813 1.682-6.583 3.161-11.107 3.799zM102.67 1.728l-2.436 1.015c1.044 1.479 1.711 2.726 2.552 4.553l2.523-1.073c-.667-1.334-1.827-3.277-2.639-4.495zm3.973-1.392l-2.465 1.015c1.073 1.45 1.798 2.581 2.726 4.408l2.465-1.102c-.696-1.276-1.827-3.161-2.726-4.321zm-16.588.841l-2.088 3.19c1.914 1.073 4.93 3.016 6.554 4.147l2.146-3.19c-1.508-1.073-4.698-3.103-6.612-4.147zm-5.365 20.59l2.175 3.799c2.552-.464 6.728-1.914 9.686-3.567 4.727-2.755 8.845-6.409 11.513-10.44l-2.233-3.944c-2.291 4.147-6.351 8.12-11.281 10.875-3.132 1.74-6.612 2.726-9.86 3.277zm.899-13.978l-2.088 3.19c1.943 1.044 4.959 2.987 6.612 4.147l2.117-3.248c-1.479-1.044-4.669-3.045-6.641-4.089zm28.681-3.48v4.205c.986-.058 2.32-.116 3.422-.116h11.977c1.015 0 2.378.087 3.219.116V4.309c-.812.087-2.059.174-3.219.174h-12.006a34.1 34.1 0 01-3.393-.174zm-2.436 14.181v4.437c1.073-.087 2.494-.174 3.625-.174h16.646c.87 0 2.175.058 3.19.174V18.49c-.986.116-2.204.174-3.19.174h-16.646c-1.131 0-2.494-.087-3.625-.174zm53.041-14.123l-2.291-2.146c-.551.174-2.146.261-2.958.261h-15.631a22.99 22.99 0 01-3.538-.29v4.031c1.363-.116 2.32-.203 3.538-.203h15.109c-.754 1.421-3.016 3.973-5.336 5.394l3.016 2.407c2.842-2.03 5.597-5.684 6.96-7.946.261-.435.812-1.131 1.131-1.508zm-11.832 3.915h-4.205c.145.928.203 1.711.203 2.61 0 4.756-.696 7.83-4.379 10.382a11.459 11.459 0 01-3.045 1.595l3.393 2.755c7.888-4.234 8.033-10.15 8.033-17.342zM15.88 60.72c-.68-.84-3.56-3.8-4.84-5v-1.28H15v-2.16h22.64v-2.96h-9.08v-1.36h7.36V45.2h-7.36v-1.36h8.28v-2.88h-8.28v-1.8H23.8v1.8H16v2.88h7.8v1.36h-7.08v2.76h7.08v1.36h-9.04V50h-3.72v-5.4c1.68-.4 3.28-.88 4.72-1.44l-3.16-3.64c-3 1.28-7.72 2.36-12.04 2.96.52 1 1.12 2.64 1.32 3.64 1.44-.16 2.96-.36 4.52-.6V50H1.08v4.44h5C4.6 58.4 2.32 62.84.04 65.48c.76 1.2 1.76 3.16 2.2 4.52 1.48-1.92 2.92-4.56 4.16-7.44v13.88h4.64v-15.6c.84 1.32 1.68 2.68 2.12 3.6l2.72-3.72zm5.6 4.68h9.72v1.68h-9.72V65.4zm0-4.44h9.72v1.72h-9.72v-1.72zm0-4.4h9.72v1.68h-9.72v-1.68zm14.24 13.48v-16.4H17.24v16.4h3.48c-2 1.36-5.16 2.84-7.88 3.64.88.84 2.2 2.12 2.92 2.96 3.2-1.04 7.16-2.96 9.6-4.84l-2.68-1.76h7.28l-2.48 1.8c2.36 1.48 5.12 3.44 6.6 4.68l4.16-2.24c-1.6-1.12-4.36-2.8-6.8-4.24h4.28zm32.84-7.88c-.88 1.64-1.88 3.04-3.08 4.04.28-2.2.4-5.96.48-12.24.64 2.96 1.48 5.72 2.6 8.2zm-8.72-10.4l.28-.88h1.96c-.12 10.8-.24 14.64-.76 15.52-.28.44-.6.56-1.12.52-.6.04-1.64 0-2.92-.08.56.96.96 2.52 1 3.6 1.52.04 3 0 4-.16 1.08-.16 1.84-.56 2.56-1.6.24-.4.44-1 .6-2 .76.68 1.64 1.84 2.08 2.64 1.16-.96 2.2-2.12 3.12-3.48 1 1.4 2.12 2.6 3.4 3.52.64-1.04 1.8-2.48 2.68-3.2-1.6-.96-2.96-2.36-4.08-4.04 1.44-3.44 2.36-7.76 2.8-12.96l-2.32-.48-.68.08h-5.6v3.52h4.6c-.24 1.92-.64 3.76-1.12 5.44-.6-1.52-1.12-3.12-1.48-4.76l-2.88.68.04-4.56c0-.52.04-1.76.04-1.76h-4.8c.24-.96.52-1.92.76-2.88h13.44v-3.96H51.72v3.96h5.92c-.6 2.36-1.32 4.88-2 6.72l4.2.6zm-2.84 4v5.72h-1.8v-5.72H57zm-5 5.48v6.16h3.2v-2.72h5V52.6H52v7.72c-.88-1.56-3.04-5.12-4-6.52v-2.12h3.64v-4.32H48v-8.24h-4.24v8.24h-4.28v4.32h3.96c-.92 4.76-2.8 10.32-4.88 13.48.64 1.08 1.56 2.8 2 4.04 1.2-1.92 2.28-4.6 3.2-7.52v14.76H48v-17.2c.8 1.8 1.64 3.68 2.04 4.88L52 61.24zm-1 13.92h25.32v-4H51v4zm59.24-35.76c-4.88 1.44-13 2.52-20.12 3 .48 1 1.08 2.72 1.24 3.8 7.28-.4 15.88-1.36 22.04-3.08l-3.16-3.72zm-1.2 17.08c1.64-2.36 3.72-6.08 5.44-9.48l-4.52-1.64c-1 3.04-3.04 7.12-4.6 9.64l3.68 1.48zm-4.88-3.16c-.08-2-.88-4.96-1.84-7.28l-3.96.76c.88 2.4 1.56 5.48 1.6 7.36l4.2-.84zm-7 1.2c-.36-2.04-1.52-5.16-2.72-7.48l-3.76.96c1.12 2.48 2.12 5.68 2.44 7.68l4.04-1.16zm-7.8 1.36l-3.24.92v-5.76h3.64v-4.36h-3.64v-7.52H81.8v7.52h-4.2v4.36h4.2v6.92c-1.8.44-3.48.88-4.84 1.16L78 63.68c1.16-.32 2.48-.68 3.8-1.08v8.84c0 .52-.2.68-.68.68-.48.04-1.88.04-3.32-.04.56 1.28 1.08 3.24 1.2 4.4 2.64.04 4.32-.12 5.56-.88 1.2-.76 1.56-1.96 1.56-4.16V61.32c1.28-.36 2.56-.76 3.84-1.16l-.6-4.28zm24.8 7.24V59h-9.64v-4.04h-4.48V59h-9.4v4.12h6.88c-2.24 3.28-5.8 6.28-9.44 7.92 1.04.88 2.4 2.6 3.16 3.72 3.28-1.84 6.44-4.84 8.8-8.24v9.68h4.48v-9.48c2.16 3.16 4.88 6.04 7.64 7.84.72-1.12 2.08-2.76 3.12-3.6-3.2-1.68-6.4-4.68-8.48-7.84h7.36zm23.04-2.8V55.4h8.44v4.92h-8.44zm-12.44 0c.08-1.48.12-2.92.12-4.2v-.72h7.52v4.92h-7.64zm7.64-14v4.64h-7.52v-4.64h7.52zm13.24 4.64h-8.44v-4.64h8.44v4.64zm4.72-9.16h-30.2v14.28c0 5.6-.36 12.72-4.72 17.52 1.08.56 3 2.2 3.76 3.08 2.88-3.12 4.32-7.52 5.04-11.88h8.16v11.16h4.8V64.8h8.44v6c0 .72-.28.96-1.04.96-.72 0-3.36.04-5.6-.08.6 1.24 1.36 3.28 1.52 4.56 3.6.04 6.04-.04 7.68-.84 1.6-.72 2.16-2 2.16-4.56V41.8zm24.88 17.52v-8.6h9.04v8.6h-9.04zm-14.04 0v-8.6h9v8.6h-9zm14.04-13.28v-6.92h-5.04v6.92h-13.8V66.2h4.8V64h9v12.48h5.04V64h9.04v2h5V46.04h-14.04z" fill="#fff"/></svg>