<svg width="74" height="37" viewBox="0 0 74 37" fill="none" xmlns="http://www.w3.org/2000/svg"><rect x=".5" width="73" height="37" rx="18.5" fill="#fff"/><path d="M23 24h1.036v-8.904h3.444V14.2h-7.924v.896H23V24z" fill="#232222"/><rect x="39.5" y="4" width="29" height="29" rx="14.5" fill="#2E2A2A"/><path d="M57.755 20.755h-.79l-.28-.27a6.47 6.47 0 001.57-4.23 6.5 6.5 0 10-6.5 6.5c1.61 0 3.09-.59 4.23-1.57l.27.28v.79l5 4.99 1.49-1.49-4.99-5zm-6 0c-2.49 0-4.5-2.01-4.5-4.5s2.01-4.5 4.5-4.5 4.5 2.01 4.5 4.5-2.01 4.5-4.5 4.5z" fill="#fff"/></svg>